<?xml version="1.0" encoding="utf-8"?>
<!-- Generator: Adobe Illustrator 17.0.0, SVG Export Plug-In . SVG Version: 6.00 Build 0)  -->
<!DOCTYPE svg PUBLIC "-//W3C//DTD SVG 1.1//EN" "http://www.w3.org/Graphics/SVG/1.1/DTD/svg11.dtd">
<svg version="1.1" id="레이어_1" xmlns="http://www.w3.org/2000/svg" xmlns:xlink="http://www.w3.org/1999/xlink" x="0px"
	 y="0px" width="122.695px" height="122.695px" viewBox="0 0 122.695 122.695" enable-background="new 0 0 122.695 122.695"
	 xml:space="preserve">
<g>
	<g>
		<g>
			<circle fill="#00AFD5" cx="61.348" cy="61.347" r="61.348"/>
		</g>
	</g>
	<g>
		<circle fill="#FFFFFF" cx="55.304" cy="63.981" r="2.942"/>
		<path fill="#FFFFFF" d="M57.797,55.009l5.159,15.66c0.363,1.096,1.547,1.689,2.646,1.325c1.096-0.364,1.688-1.548,1.325-2.646
			l-5.504-16.551H61.42c-0.918-2.466-3.022-4.081-6.119-4.082c-3.097,0.001-5.201,1.616-6.119,4.082L43.68,69.348
			c-0.365,1.097,0.229,2.281,1.325,2.646c1.096,0.364,2.28-0.229,2.646-1.325l5.159-15.66c0.56-1.622,1.198-2.271,2.493-2.271
			C56.596,52.738,57.235,53.386,57.797,55.009z"/>
		<path fill="#FFFFFF" d="M94.121,67.827c-1.628,0-2.724-1.096-2.724-2.725c0-1.506,1.105-2.725,2.81-2.725h10.774
			c1.071,0,1.94-0.868,1.94-1.939c0-1.072-0.87-1.94-1.94-1.94H94.206c-1.672,0-2.81-1.22-2.81-2.725
			c0-1.614,1.078-2.724,2.724-2.724h11.547c1.071,0,1.94-0.868,1.94-1.94c0-1.071-0.869-1.94-1.94-1.94H93.815
			c-3.793,0-6.603,2.412-6.603,6.382c0,1.821,0.941,4.01,2.343,4.889c-1.526,1.054-2.343,2.969-2.343,4.791
			c0,3.857,2.81,6.479,6.603,6.479h11.852c1.071,0,1.94-0.87,1.94-1.94c0-1.071-0.869-1.939-1.94-1.939H94.121z"/>
		<path fill="#FFFFFF" d="M83.848,49.167c1.071,0,1.938,0.869,1.938,1.94c0,1.072-0.867,1.94-1.938,1.94h-6.045v16.962
			c0,1.155-0.937,2.092-2.093,2.092c-1.154,0-2.093-0.937-2.093-2.092V53.047h-5.983c-1.073,0-1.94-0.868-1.94-1.94
			c0-1.071,0.867-1.94,1.94-1.94H83.848z"/>
		<path fill="#FFFFFF" d="M33.778,48.691c-2.234,0-4.392,0.965-5.714,2.572c-1.32-1.606-3.501-2.572-5.735-2.572
			c-4.477,0-7.241,2.804-7.241,7.086v14.233c0,1.155,0.937,2.092,2.091,2.092c1.156,0,2.093-0.937,2.093-2.092V56.442
			c0-2.322,1.08-3.708,3.291-3.708c1.97,0,3.411,1.387,3.411,3.808v12.877c0,1.155,0.937,2.092,2.091,2.092
			c1.156,0,2.093-0.937,2.093-2.092V56.542c0-2.421,1.438-3.808,3.411-3.808c2.331,0,3.291,1.387,3.291,3.708v13.567
			c0,1.155,0.937,2.092,2.093,2.092c1.154,0,2.091-0.937,2.091-2.092V55.776C41.042,51.495,38.512,48.691,33.778,48.691z"/>
	</g>
</g>
</svg>
